<svg xmlns="http://www.w3.org/2000/svg" width="16" height="16" viewBox="0 0 16 16" fill="currentColor">
    <path d="m7 1v14c-4 0-2-4-4-4h-2c-0.70635026 0-1-0.350913-1-1v-4c0-0.6874673 0.33067465-1 1-1h2c2 0 0-4 4-4z" stroke-linecap="round" stroke-linejoin="round" stroke-width="2" style="paint-order:stroke fill markers"/>
    <path d="m9 6a2 2 0 0 1 2 2 2 2 0 0 1-2 2" stroke-linecap="round" stroke-linejoin="round" stroke-width="2" style="paint-order:stroke fill markers"/>
    <path d="m9 2v2a4 4 0 0 1 4 4 4 4 0 0 1-4 4v2a6 6 0 0 0 6-6 6 6 0 0 0-6-6z" fill-opacity=".5" stroke-linecap="round" stroke-linejoin="round" stroke-width="2" style="paint-order:stroke fill markers"/>
</svg>
