<svg version="1.1" viewBox="0 0 16 16" xmlns="http://www.w3.org/2000/svg" xmlns:xlink="http://www.w3.org/1999/xlink">
    <path d="m9.961 0.2441a2 2 0 0 1-1.961 1.756 2 2 0 0 1-1.959-1.74 8 8 0 0 0-3.746 2.16 2 2 0 0 1 0.5098 2.58 2 2 0 0 1-2.498 0.8223 8 8 0 0 0-0.3066 2.178 8 8 0 0 0 0.3066 2.174 2 2 0 0 1 0.8594-0.1719 2 2 0 0 1 1.639 0.998 2 2 0 0 1-0.5098 2.58 8 8 0 0 0 3.746 2.16 2 2 0 0 1 1.959-1.74 2 2 0 0 1 1.959 1.74 8 8 0 0 0 3.762-2.176 2 2 0 0 1-0.5254-2.564 2 2 0 0 1 1.639-0.998 2 2 0 0 1 0.8594 0.1719 8 8 0 0 0 0.3066-2.174 8 8 0 0 0-0.3047-2.178 2 2 0 0 1-2.5-0.8223 2 2 0 0 1 0.5391-2.576 8 8 0 0 0-3.773-2.18zm-1.961 4.756a3 3 0 0 1 3 3 3 3 0 0 1-3 3 3 3 0 0 1-3-3 3 3 0 0 1 3-3z" fill="#ffffff" stroke-linecap="round" stroke-width="2" style="paint-order:stroke fill markers"/>
</svg>
