<svg version="1.1" viewBox="0 0 16 16" xmlns="http://www.w3.org/2000/svg" xmlns:xlink="http://www.w3.org/1999/xlink">
 <g fill="#fff" stroke-linecap="round" stroke-linejoin="round" stroke-width="2.00001">
  <path d="m8 0c-1.6619932 0-3 1.3380068-3 3v2h2v-2c0-0.5539988 0.4460012-1 1-1s1 0.4460012 1 1v2h2v-2c0-1.6619932-1.3380068-3-3-3z" fill-opacity=".50093335" style="paint-order:stroke fill markers"/>
  <path d="m1 5v2a7 7 0 0 0 6 6.921875v2.078125h2v-2.078125a7 7 0 0 0 6-6.921875v-2h-2v2a5 5 0 0 1-5 5 5 5 0 0 1-5-5v-2h-2zm4 0v2c0 1.6619932 1.3380068 3 3 3s3-1.3380068 3-3v-2h-6z" style="paint-order:stroke fill markers"/>
 </g>
</svg>
