<svg version="1.1" viewBox="0 0 16 16" xmlns="http://www.w3.org/2000/svg" xmlns:xlink="http://www.w3.org/1999/xlink">
 <g fill="#fff" stroke-linecap="round" stroke-linejoin="round">
  <path d="m8 0c-1.6619932 0-3 1.3380068-3 3v4c0 1.6619932 1.3380068 3 3 3 0.065499 0 0.1289288-0.0056715 0.1933594-0.0097656 0.1377903-0.403028 0.3521823-0.7896823 0.6582031-1.0957032 0.4139824-0.4139823 0.9730072-0.6632641 1.5234375-0.7773437 0.145714-0.0301999 0.290055-0.0506047 0.431641-0.0625 0.122765-0.3282495 0.193359-0.6825742 0.193359-1.0546875v-4c0-1.6619932-1.3380068-3-3-3zm0 2c0.5539988 0 1 0.4460012 1 1v4c0 0.5539988-0.4460012 1-1 1s-1-0.4460012-1-1v-4c0-0.5539988 0.4460012-1 1-1zm-7 3v2a7 7 0 0 0 6 6.921875v2.078125h1.1835938c-0.2234493-0.675695-0.2289571-1.394337-0.0800782-1.861328 0.225523-0.707401 0.6107893-1.084186 0.6601563-1.134766-0.0632814-0.064065-0.3961313-0.387395-0.6230469-1.015625a5 5 0 0 1-0.140625 0.011719 5 5 0 0 1-5-5v-2h-2zm12 0v2a5 5 0 0 1-0.271484 1.5996094c0.133043 0.101272 0.214105 0.1832107 0.240234 0.2089844 0.05192-0.050948 0.428352-0.4353462 1.136719-0.6621094 0.223411-0.0715189 0.504946-0.1055216 0.810547-0.0996094a7 7 0 0 0 0.083984-1.046875v-2h-2z" fill-opacity=".50093335" stroke-width="2.00001" style="paint-order:stroke fill markers"/>
  <path d="m12.972667 11.597771-1.292969-1.289548s-0.723693-0.690369-1.414062 0c-0.6903689 0.690369 0 1.41032 0 1.41032l1.292969 1.289547-1.292969 1.289548s-0.6818549 0.728465 0 1.41032c0.681855 0.681855 1.414062 0 1.414062 0l1.292969-1.289548 1.292969 1.289548s0.729526 0.684536 1.414062 0 0-1.41032 0-1.41032l-1.292969-1.289548 1.292969-1.289547s0.685803-0.724517 0-1.41032-1.414062 0-1.414062 0z" color="#000000" stroke-width="4" style="-inkscape-stroke:none;paint-order:stroke fill markers"/>
 </g>
</svg>
