<svg class="eyecons" fill="currentColor" version="1.1" viewBox="0 0 16 16" xmlns="http://www.w3.org/2000/svg">
    <path d="m14.99 0.9453-2.178 2.178a1 1 0 0 0-0.1016-0.1191c-1.336-1.337-3.095-2.004-4.854-2.004-1.758 1e-7 -3.516 0.6674-4.852 2.004-2.671 2.673-2.671 7.036 0 9.709 2.671 2.673 7.034 2.673 9.705 0a1 1 0 0 0-0.001953-1.414 1 1 0 0 0-1.414 0.001953c-1.907 1.908-4.968 1.908-6.875 0-1.907-1.908-1.907-4.974 0-6.883 1.907-1.908 4.968-1.908 6.875 0a1 1 0 0 0 0.1289 0.09375l-2.434 2.434h4.5a1.5 1.5 0 0 0 0.293-0.02734 1.5 1.5 0 0 0 0.2812-0.08594 1.5 1.5 0 0 0 0.2598-0.1387 1.5 1.5 0 0 0 0.2266-0.1875 1.5 1.5 0 0 0 0.1875-0.2266 1.5 1.5 0 0 0 0.1387-0.2598 1.5 1.5 0 0 0 0.08398-0.2812 1.5 1.5 0 0 0 0.0293-0.293v-4.5z" />
</svg>
