<svg xmlns="http://www.w3.org/2000/svg" width="16" height="16" viewBox="0 0 16 16" fill="#ffffff">
	<path
		d="m10.5 0a1.5 1.5 0 0 0-1.5 1.5 1.5 1.5 0 0 0 1.5 1.5 1.5 1.5 0 0 0 1.5-1.5 1.5 1.5 0 0 0-1.5-1.5zm-5.5 4a1.0001 1.0001 0 0 0-0.89453 0.55273l-2 4a1 1 0 0 0 0.44727 1.3418 1 1 0 0 0 1.3418-0.44727l1.7227-3.4473h1.9062l-1.4102 3.5293-0.0039062 0.0039062-0.49609 0.74414 2.332 1.5547 1.334 0.88867 1.8887 2.834a1 1 0 0 0 1.3867 0.27734 1 1 0 0 0 0.27734-1.3867l-2.1113-3.166-0.83398-0.55664-1.6582-1.1055 1.6992-4.2461a1 1 0 0 0 0.042969-0.13281 1.0001 1.0001 0 0 0 0.021484-0.11914 1 1 0 0 0 0-0.0078125 1.0001 1.0001 0 0 0 0.0039063-0.080078 1.0001 1.0001 0 0 0 0.0019531-0.042969 1 1 0 0 0 0-0.0078124 1.0001 1.0001 0 0 0-0.0078125-0.095703 1.0001 1.0001 0 0 0-0.0019532-0.027344 1 1 0 0 0-0.0019531-0.0058594 1.0001 1.0001 0 0 0-0.021484-0.099609 1.0001 1.0001 0 0 0-0.0039063-0.021484 1 1 0 0 0-0.0039063-0.011719 1.0001 1.0001 0 0 0-0.025391-0.072266 1 1 0 0 0-0.025391-0.064453 1.0001 1.0001 0 0 0-0.027344-0.050781 1 1 0 0 0-0.033203-0.060547 1.0001 1.0001 0 0 0-0.048828-0.072266 1.0001 1.0001 0 0 0-0.011719-0.015625 1 1 0 0 0-0.011719-0.013672 1.0001 1.0001 0 0 0-0.060547-0.066406 1 1 0 0 0-0.048828-0.044922 1.0001 1.0001 0 0 0-0.039062-0.035156 1 1 0 0 0-0.064453-0.046875 1.0001 1.0001 0 0 0-0.060547-0.039062 1.0001 1.0001 0 0 0-0.011719-0.0078126 1 1 0 0 0-0.023437-0.011719 1.0001 1.0001 0 0 0-0.085938-0.041016 1.0001 1.0001 0 0 0-0.0078124-0.0039063 1 1 0 0 0-0.035156-0.011719 1.0001 1.0001 0 0 0-0.076172-0.025391 1 1 0 0 0-0.064453-0.013672 1.0001 1.0001 0 0 0-0.070312-0.013672 1.0001 1.0001 0 0 0-0.0058594 0 1 1 0 0 0-0.023438-0.0019531 1.0001 1.0001 0 0 0-0.095703-0.0058594h-4zm8.9355 0.0019531a1 1 0 0 0-0.49024 0.16602l-1.2012 0.80078-0.45898 1.1445-0.85352 2.1348 3.623-2.416a1 1 0 0 0 0.27734-1.3867 1 1 0 0 0-0.89648-0.44336zm-9.5703 7.8457-0.73242 0.97656-2.3164-0.77344a1 1 0 0 0-1.2656 0.63281 1 1 0 0 0 0.63281 1.2656l3.6836 1.2266 1.6641-2.2168-0.69531-0.46289-0.9707-0.64844z"
	/>
</svg>
