<svg xmlns="http://www.w3.org/2000/svg" width="16" height="16" viewBox="0 0 16 16" fill="currentColor">
    <path
        d="m7 1c-4 0-2 4-4 4h-2c-0.66932 0-1 0.31253-1 1v4c0 0.64909 0.29365 1 1 1h2c2 0 4e-6 4 4 4v-14zm7.0371 3.998c-0.24977 0.0034248-0.5013 0.10285-0.69531 0.29688l-1.3418 1.3418-1.3398-1.3398c-0.3892-0.38921-1.007-0.39921-1.3848-0.021484s-0.36772 0.99556 0.021484 1.3848l1.3398 1.3398-1.3457 1.3457c-0.38803 0.38804-0.39706 1.0053-0.019531 1.3828 0.37753 0.37755 0.99478 0.36851 1.3828-0.019532l1.3457-1.3457 1.3457 1.3477c0.38921 0.3892 1.007 0.39725 1.3848 0.019531 0.37772-0.37772 0.36968-0.99556-0.019531-1.3848l-1.3477-1.3457 1.3418-1.3418c0.38803-0.38804 0.39511-1.0053 0.017578-1.3828-0.18876-0.18877-0.43577-0.28077-0.68555-0.27734z" />
</svg>
