<svg xmlns="http://www.w3.org/2000/svg" width="16" height="16" viewBox="0 0 16 16" fill="currentColor">
    <path d="m8 0a8 8 0 0 0-8 8 8 8 0 0 0 0.64453 3.1113l1.5586-1.5586c-0.13224-0.49512-0.20312-1.0159-0.20312-1.5527 0-3.3137 2.6863-6 6-6 0.53681 0 1.0576 0.070891 1.5527 0.20312l1.5684-1.5684a8 8 0 0 0-3.1211-0.63477zm7.3652 4.8789-1.5684 1.5684c0.13224 0.49512 0.20312 1.0159 0.20312 1.5527 0 3.3137-2.6863 6-6 6-0.53681 0-1.0576-0.070895-1.5527-0.20312l-1.5586 1.5586a8 8 0 0 0 3.1113 0.64453 8 8 0 0 0 8-8 8 8 0 0 0-0.63477-3.1211z" opacity="0.4"/>
    <path d="m12.949 1.6367-11.313 11.313 1.4141 1.4141 11.312-11.312-1.4141-1.4141z"/>
</svg>
