<svg xmlns="http://www.w3.org/2000/svg" width="16" height="16" viewBox="0 0 16 16" fill="currentColor">
    <path
        d="m6.018 0a1 1 0 0 0-0.7109 0.2812 1 1 0 0 0-0.02734 1.412l2.721 2.822 2.721-2.822a1 1 0 0 0-0.02734-1.412 1 1 0 0 0-1.414 0.02539l-1.279 1.326-1.279-1.326a1 1 0 0 0-0.7031-0.3066zm-4.018 6a1 1 0 0 0-1 1v2a1 1 0 0 0 1 1h12a1 1 0 0 0 1-1v-2a1 1 0 0 0-1-1h-12zm6 5.521-2.721 2.822a1 1 0 0 0 0.02734 1.412 1 1 0 0 0 1.414-0.02539l1.279-1.326 1.279 1.326a1 1 0 0 0 1.414 0.02539 1 1 0 0 0 0.02734-1.412l-2.721-2.822z" />
</svg>
