<svg xmlns="http://www.w3.org/2000/svg" width="16" height="16" viewBox="0 0 16 16" fill="#ffffff">
	<path
		d="m7 0c-1.108 0-2 0.892-2 2v2c0 1.108 0.892 2 2 2v1h-4c-0.554 0-1 0.446-1 1v2c-1.108 0-2 0.892-2 2v2c0 1.108 0.892 2 2 2h2c1.108 0 2-0.892 2-2v-2c0-1.108-0.892-2-2-2v-1h8v1c-1.108 0-2 0.892-2 2v2c0 1.108 0.892 2 2 2h2c1.108 0 2-0.892 2-2v-2c0-1.108-0.892-2-2-2v-2c0-0.554-0.446-1-1-1h-4v-1c1.108 0 2-0.892 2-2v-2c0-1.108-0.892-2-2-2h-2zm0 2h2v2h-2v-2zm-5 10h2v2h-2v-2zm10 0h2v2h-2v-2z"
	/>
</svg>
