<svg xmlns="http://www.w3.org/2000/svg" width="16" height="16" viewBox="0 0 16 16" fill="currentColor">
    <path
        d="m8 1.5859c-0.554 0-1 0.446-1 1v4.5859l-1.293-1.293c-0.39172-0.39175-1.0223-0.39175-1.4141 0-0.3918 0.39175-0.39172 1.0243 0 1.416l3.707 3.7051 3.707-3.7051c0.39172-0.39175 0.39172-1.0243 0-1.416-0.39172-0.39175-1.0223-0.39175-1.4141 0l-1.293 1.293v-4.5859c0-0.554-0.446-1-1-1zm-5 11c-0.554-1e-6 -1 0.446-1 1 0 0.554 0.446 1 1 1h10c0.554 0 1-0.446 1-1 0-0.554-0.446-1-1-1h-10z" />
</svg>
