<svg xmlns="http://www.w3.org/2000/svg" width="16" height="16" viewBox="0 0 16 16" fill="#ffffff">
	<path
		d="m8.0039 2.2031c-0.49302-1.78e-5 -0.98385 0.030024-1.459 0.097656l1.9199 1.9199c0.82492 0.049809 1.6053 0.22637 2.043 0.44727 1.0448 0.52716 1.9685 1.3277 2.6035 2.0566 0.31751 0.36444 0.56302 0.71588 0.71289 0.97852 0.06834 0.11975 0.10543 0.22756 0.12891 0.29688-0.02348 0.069304-0.060556 0.1771-0.12891 0.29688-0.11919 0.20885-0.29944 0.47307-0.52734 0.75586l1.4258 1.4258c0.34672-0.40924 0.6321-0.80535 0.8457-1.1797 0.23413-0.41026 0.42188-0.73695 0.42188-1.2988 0-0.5618-0.18778-0.88857-0.42188-1.2988-0.2341-0.41022-0.55426-0.84772-0.94726-1.2988-0.78596-0.9021-1.8772-1.8505-3.2148-2.5254-0.98316-0.49608-2.1864-0.67379-3.4023-0.67383zm-6.7227 3.3223c-0.34514 0.40778-0.62891 0.8027-0.8418 1.1758-0.23413 0.41026-0.42969 0.73695-0.42969 1.2988-4e-8 0.5618 0.1956 0.88857 0.42969 1.2988 0.2341 0.41022 0.55427 0.84772 0.94727 1.2988 0.78596 0.9021 1.8772 1.8505 3.2148 2.5254 0.98316 0.49608 2.1864 0.67379 3.4023 0.67383 0.49072 1.8e-5 0.98006-0.028745 1.4531-0.095703l-1.9219-1.9219c-0.82182-0.050495-1.5989-0.22712-2.0352-0.44727-1.0448-0.52716-1.9685-1.3277-2.6035-2.0566-0.31751-0.36444-0.56302-0.71588-0.71289-0.97852-0.068335-0.11975-0.10542-0.22756-0.12891-0.29688 0.023479-0.069304 0.06055-0.1771 0.12891-0.29688 0.11858-0.20778 0.2972-0.4708 0.52344-0.75195l-1.4258-1.4258z"
		opacity=".4"
	/>
	<path
		d="m3.0501 1.636 11.314 11.314-1.4142 1.4142-11.314-11.314z"
		stop-color="#000000"
		style="paint-order: stroke fill markers"
	/>
</svg>
