<svg xmlns="http://www.w3.org/2000/svg" width="16" height="16" viewBox="0 0 16 16" fill="currentColor">
    <path
        d="m8.0039 2.2039c-1.2158-4.39e-5 -2.4195 0.17677-3.4026 0.6727-1.3378 0.6749-2.4288 1.6243-3.2148 2.5265-0.39304 0.45111-0.71235 0.8882-0.94647 1.2985-0.23413 0.41026-0.4302 0.73662-0.4302 1.2985-4e-8 0.5618 0.19611 0.88824 0.4302 1.2985 0.2341 0.41022 0.55347 0.84739 0.94647 1.2985 0.78596 0.9021 1.8772 1.8516 3.2148 2.5265 0.98316 0.49608 2.1867 0.67266 3.4026 0.6727 1.2158 4.4e-5 2.4195-0.17677 3.4026-0.6727 1.3378-0.6749 2.4288-1.6243 3.2148-2.5265 0.39304-0.45111 0.71235-0.8882 0.94647-1.2985 0.23413-0.41026 0.42239-0.73662 0.42239-1.2985 0-0.5618-0.18829-0.88824-0.42239-1.2985-0.2341-0.41022-0.55347-0.84739-0.94647-1.2985-0.78596-0.9021-1.8772-1.8516-3.2148-2.5265-0.98316-0.49608-2.1867-0.67266-3.4026-0.6727zm0 2.0024c0.98532 3.56e-5 1.9843 0.19972 2.503 0.46148 1.0448 0.52716 1.9697 1.3283 2.6047 2.0572 0.31751 0.36444 0.56192 0.71511 0.71179 0.97775 0.06834 0.11975 0.10558 0.22793 0.12906 0.29724-0.02348 0.069304-0.06071 0.17747-0.12906 0.29724-0.14991 0.26268-0.39424 0.61327-0.71179 0.97775-0.63513 0.72893-1.5677 1.5301-2.6125 2.0572-0.51863 0.26165-1.5099 0.46152-2.4952 0.46148-0.98532-3.6e-5 -1.9843-0.19972-2.503-0.46148-1.0448-0.52716-1.9697-1.3283-2.6047-2.0572-0.31751-0.36444-0.56192-0.71511-0.71179-0.97775-0.068335-0.11975-0.10558-0.22793-0.12907-0.29724 0.023479-0.069304 0.060714-0.17747 0.12907-0.29724 0.14991-0.26268 0.39424-0.61327 0.71179-0.97775 0.63513-0.72893 1.5599-1.5301 2.6047-2.0572 0.51863-0.26165 1.5177-0.46152 2.503-0.46148zm-0.023466 1.7913a2.0024 2.0024 0 0 0-2.0024 2.0024 2.0024 2.0024 0 0 0 2.0024 2.0024 2.0024 2.0024 0 0 0 2.0024-2.0024 2.0024 2.0024 0 0 0-2.0024-2.0024z" />
</svg>
