<svg xmlns="http://www.w3.org/2000/svg" width="16" height="16" viewBox="0 0 16 16" fill="#ffffff">
	<path
		d="m16 0h-7.0711l-7.7782 7.7782v5.6569l-0.85554 0.85554c-0.39174 0.39174-0.39174 1.0225 0 1.4142 0.39174 0.39174 1.0225 0.39174 1.4142 0l0.85554-0.85554h5.6569l7.7782-7.7782zm-2.1213 2.1213 1e-6 3.6571-2.2415-0.00138 0.82726-0.82726v-1.4142h-1.4142l-0.82726 0.82726-0.0014-2.2415zm-5.6555 1.4128v2.8284l-1.5427 1.5427v-2.8284zm4.2426 4.2426-1.5427 1.5427h-2.8284l1.5427-1.5427zm-7.7851-0.7002v2.8284l-1.5261 1.5261v-2.8284zm4.2426 4.2426-1.5302 1.5302h-2.8284l1.5302-1.5302z"
		stop-color="#000000"
		stroke-linecap="round"
		style="paint-order: stroke fill markers"
	/>
</svg>
