<svg xmlns="http://www.w3.org/2000/svg" width="16" height="16" viewBox="0 0 16 16" fill="#ffffff">
	<path
		d="m8.7578 1c-0.51184 0-1.0235 0.19541-1.4141 0.58594l-2.1211 2.1211-1.416 1.4141c-0.78105 0.78105-0.78105 2.0471 0 2.8281 0.78105 0.78105 0.78105 2.0471 0 2.8281-1.2689 1.2695-2.5376 2.5392-3.8066 3.8086l1.4141 1.4141c1.2694-1.269 2.539-2.5378 3.8086-3.8066 0.78105-0.78105 2.0471-0.78105 2.8281 0s2.0471 0.78105 2.8281 0l1.4141-1.416 2.1211-2.1211c0.78105-0.78105 0.78105-2.0471 0-2.8281l-4.2422 4.2422-1.4141-1.4141 4.2422-4.2422-1.4141-1.4141-4.2422 4.2422-1.4141-1.4141 4.2422-4.2422c-0.39052-0.39052-0.90222-0.58594-1.4141-0.58594z"
	/>
</svg>
