<svg xmlns="http://www.w3.org/2000/svg" width="16" height="16" viewBox="0 0 16 16" fill="currentColor">
    <path d="m4.3965 2.4492c-0.98527-2.251e-4 -1.921 0.42745-2.5664 1.1719-0.53507 0.61778-0.83031 1.4073-0.83008 2.2246 0.003015 0.89973 0.36233 1.7617 1 2.3965l4.7988 4.8105c0.66328 0.66328 1.7391 0.66325 2.4023 0l4.7988-4.8105c0.63767-0.63475 0.997-1.4968 1-2.3965 2.29e-4 -0.81728-0.29501-1.6068-0.83008-2.2246-0.64543-0.74443-1.5811-1.1721-2.5664-1.1719-0.90093-9.63e-5 -1.7652 0.35719-2.4023 0.99414l-1.2012 1.2012-1.2012-1.2012c-0.63715-0.63695-1.5014-0.99424-2.4023-0.99414z" />
</svg>
