<svg xmlns="http://www.w3.org/2000/svg" width="16" height="16" viewBox="0 0 16 16" fill="#ffffff">
	<path
		d="m8 0.28711-4.2734 2.4668v3.7793l-3.2734 1.8887v4.9355l4.2734 2.4668 3.2734-1.8887 3.2734 1.8887 4.2734-2.4668v-4.9355l-3.2734-1.8887v-3.7793l-4.2734-2.4668zm0 2.3086 2.2734 1.3125v2.625l-2.2734 1.3125-2.2734-1.3125v-2.625l2.2734-1.3125zm-3.2734 5.6699 2.2734 1.3125v2.625l-2.2734 1.3105-2.2734-1.3105v-2.625l2.2734-1.3125zm6.5469 0 2.2734 1.3125v2.625l-2.2734 1.3105-2.2734-1.3105v-2.625l2.2734-1.3125z"
	/>
</svg>
