<svg xmlns="http://www.w3.org/2000/svg" width="16" height="16" viewBox="0 0 16 16" fill="currentColor">
    <path d="m4 0c-2.216 0-4 1.784-4 4h2c0-1.108 0.892-2 2-2v-2zm2 0v2h4v-2h-4zm6 0v2c1.108 0 2 0.892 2 2h2c0-2.216-1.784-4-4-4zm-6.5 4a1.5 1.5 0 0 0-1.5 1.5 1.5 1.5 0 0 0 1.5 1.5 1.5 1.5 0 0 0 1.5-1.5 1.5 1.5 0 0 0-1.5-1.5zm-5.5 2v4h2v-4h-2zm14 0v4h2v-4h-2zm-4 2-1.3496 2-1.9766-1-2.6738 2c0 0.78832 0.57756 1.0762 1 1.0762h6c0.42238 0 1-0.2878 1-1.0762l-2-3zm-10 4c0 2.216 1.784 4 4 4v-2c-1.108 0-2-0.892-2-2h-2zm14 0c0 1.108-0.892 2-2 2v2c2.216 0 4-1.784 4-4h-2zm-8 2v2h4v-2h-4z" />
</svg>
