<svg xmlns="http://www.w3.org/2000/svg" width="16" height="16" viewBox="0 0 16 16" fill="#ffffff">
	<path
		d="m4.5 8c-1.9211 0-3.5 1.5789-3.5 3.5s1.5789 3.5 3.5 3.5c1.5743 0 2.9174-1.06 3.3516-2.5h6.1484a1 1 0 0 0 1-1 1 1 0 0 0-1-1h-6.1484c-0.43415-1.44-1.7773-2.5-3.3516-2.5zm0 2c0.84027 0 1.5 0.65973 1.5 1.5s-0.65973 1.5-1.5 1.5-1.5-0.65973-1.5-1.5 0.65973-1.5 1.5-1.5z"
	/>
	<path
		d="m11.5 1c-1.5743 0-2.9174 1.06-3.3516 2.5h-6.1484a1 1 0 0 0-1 1 1 1 0 0 0 1 1h6.1484c0.43415 1.44 1.7773 2.5 3.3516 2.5 1.9211 0 3.5-1.5789 3.5-3.5s-1.5789-3.5-3.5-3.5zm0 2c0.84027 0 1.5 0.65973 1.5 1.5s-0.65973 1.5-1.5 1.5-1.5-0.65973-1.5-1.5 0.65973-1.5 1.5-1.5z"
	/>
</svg>
