<svg xmlns="http://www.w3.org/2000/svg" width="16" height="16" viewBox="0 0 16 16" fill="currentColor">
    <path
        d="m12 8c-1.6e-4 -1.0608-0.42169-2.0781-1.1718-2.8282-0.39049-0.39056-1.0237-0.39056-1.4142-3.77e-5 -0.39052 0.39052-0.39052 1.0237 3.77e-5 1.4142 0.37513 0.37497 0.5859 0.88362 0.58598 1.414-8.01e-5 0.5304-0.21085 1.0391-0.58598 1.414-0.39056 0.39049-0.39056 1.0237-3.79e-5 1.4142 0.39052 0.39052 1.0237 0.39052 1.4142-3.8e-5 0.75014-0.75006 1.1717-1.7674 1.1718-2.8282zm-8.2421 5.6563c-0.39052 0.39052-1.0237 0.39052-1.4142-3.8e-5 -1.5003-1.5001-2.3434-3.5347-2.3437-5.6563 0.0075662-2.1188 0.85539-4.1481 2.354-5.646 0.38707-0.39398 1.0202-0.39398 1.4108-0.0034559 0.39052 0.39052 0.39052 1.0237-0.00346 1.4108-1.1287 1.1216-1.761 2.6475-1.7613 4.2387 2.402e-4 1.5912 0.63254 3.1172 1.7579 4.2422 0.39056 0.39049 0.39056 1.0237 3.79e-5 1.4142zm2.2421-5.6563c8.01e-5 -0.5304 0.21085-1.0391 0.58598-1.414 0.39056-0.39049 0.39056-1.0237 3.79e-5 -1.4142-0.39052-0.39052-1.0237-0.39052-1.4142 3.77e-5 -0.75014 0.75006-1.1717 1.7674-1.1718 2.8282 1.603e-4 1.0608 0.42169 2.0781 1.1718 2.8282 0.39049 0.39056 1.0237 0.39056 1.4142 3.8e-5 0.39052-0.39052 0.39052-1.0237-3.79e-5 -1.4142-0.37513-0.37497-0.5859-0.88362-0.58598-1.414zm6.2421 5.6563c-0.39052-0.39052-0.39052-1.0237 3.8e-5 -1.4142 1.1253-1.125 1.7576-2.6509 1.7578-4.2422-2.4e-4 -1.5912-0.63254-3.1172-1.7578-4.2421-0.39056-0.39049-0.39056-1.0237-3.8e-5 -1.4142 0.39052-0.39052 1.0237-0.39052 1.4142 3.79e-5 1.5003 1.5001 2.3434 3.5347 2.3437 5.6563-3.21e-4 2.1216-0.84338 4.1562-2.3437 5.6563-0.39049 0.39056-1.0237 0.39056-1.4142 3.8e-5z" />
</svg>
