<svg xmlns="http://www.w3.org/2000/svg" width="16" height="16" viewBox="0 0 16 16" fill="currentColor">
    <path
        d="m8 2c-2.2091 0-4 1.7909-4 4 0 0.55228 0.44772 1 1 1s1-0.44772 1-1c0-1.1046 0.89543-2 2-2 1.1046 0 2 0.89543 2 2s-0.89543 2-2 2c-0.55228 0-1 0.44772-1 1v1c0 0.55228 0.44772 1 1 1s1-0.44772 1-1v-0.13477c1.7633-0.45527 2.9965-2.0441 3-3.8652 0-2.2091-1.7909-4-4-4zm0 9.75a1.25 1.25 0 0 0-1.25 1.25 1.25 1.25 0 0 0 1.25 1.25 1.25 1.25 0 0 0 1.25-1.25 1.25 1.25 0 0 0-1.25-1.25z" />
</svg>
