<svg xmlns="http://www.w3.org/2000/svg" width="16" height="16" viewBox="0 0 16 16" fill="currentColor">
    <path
        d="m6 0c-1.108 0-2 0.892-2 2h-2c-0.554 0-1 0.446-1 1s0.446 1 1 1v9c0 1.662 1.338 3 3 3h6c1.662 0 3-1.338 3-3v-9c0.554 0 1-0.446 1-1s-0.446-1-1-1h-2c0-1.108-0.892-2-2-2h-4zm-2 4h8v9c0 0.554-0.446 1-1 1h-6c-0.554 0-1-0.446-1-1v-9zm2.334 2c-0.554 0-1 0.446-1 1v4c0 0.554 0.446 1 1 1s1-0.446 1-1v-4c0-0.554-0.446-1-1-1zm3.332 0c-0.554 0-1 0.446-1 1v4c0 0.554 0.446 1 1 1 0.554 0 1-0.446 1-1v-4c0-0.554-0.446-1-1-1z"
        fill-rule="evenodd" />
</svg>
