<svg xmlns="http://www.w3.org/2000/svg" width="16" height="16" viewBox="0 0 16 16" fill="#ffffff">
	<path
		d="m11 1a2 2 0 0 0-2 2 2 2 0 0 0 2 2 2 2 0 0 0 2-2 2 2 0 0 0-2-2zm-6 2a2 2 0 0 0-2 2 2 2 0 0 0 2 2 2 2 0 0 0 2-2 2 2 0 0 0-2-2zm3.4531 4c-0.00482 0.00821-0.0087999 0.017216-0.013672 0.025391 1.2779 0.14377 2.3862 0.90559 3.0137 1.9746h1.5469a1 1 0 0 1 1 1v2a1 1 0 0 0 1 1 1 1 0 0 0 1-1v-3a2 2 0 0 0-2-2h-5.5469zm-6.4531 2c-1.1046 0-2 0.89543-2 2v2c0 0.55228 0.44772 1 1 1s1-0.44772 1-1v-1c0-0.55228 0.44772-1 1-1h4c0.55228 0 1 0.44772 1 1v1c0 0.55228 0.44772 1 1 1s1-0.44772 1-1v-2c0-1.1046-0.89543-2-2-2h-6z"
		stroke-linecap="round"
		stroke-linejoin="round"
		stroke-width="2"
		style="paint-order: stroke fill markers"
	/>
</svg>
