<svg xmlns="http://www.w3.org/2000/svg" width="16" height="16" viewBox="0 0 16 16" fill="#ffffff">
	<g clip-path="url(#b)">
		<mask
			id="a"
			x="0"
			y="0"
			width="16"
			height="16"
			style="mask-type: luminance"
			maskUnits="userSpaceOnUse"
		>
			<path d="M16 0H0V16H16V0Z" />
		</mask>
		<g mask="url(#a)">
			<path
				d="m8 0c4.42 0 8 3.58 8 8-4e-4 1.6762-0.5265 3.3101-1.5042 4.6716-0.9776 1.3616-2.3577 2.3823-3.9458 2.9184-0.4 0.08-0.55-0.17-0.55-0.38 0-0.27 0.01-1.13 0.01-2.2 0-0.75-0.25-1.23-0.54-1.48 1.78-0.2 3.65-0.88 3.65-3.95 0-0.88-0.31-1.59-0.82-2.15 0.08-0.2 0.36-1.02-0.08-2.12 0 0-0.67-0.22-2.2 0.82-0.64-0.18-1.32-0.27-2-0.27s-1.36 0.09-2 0.27c-1.53-1.03-2.2-0.82-2.2-0.82-0.44 1.1-0.16 1.92-0.08 2.12-0.51 0.56-0.82 1.28-0.82 2.15 0 3.06 1.86 3.75 3.64 3.95-0.23 0.2-0.44 0.55-0.51 1.07-0.46 0.21-1.61 0.55-2.33-0.66-0.15-0.24-0.6-0.83-1.23-0.82-0.67 0.01-0.27 0.38 0.01 0.53 0.34 0.19 0.73 0.9 0.82 1.13 0.16 0.45 0.68 1.31 2.69 0.94 0 0.67 0.01 1.3 0.01 1.49 0 0.21-0.15 0.45-0.55 0.38-1.5934-0.5304-2.9793-1.549-3.9611-2.9114-0.98184-1.3623-1.5098-2.9993-1.5089-4.6786 0-4.42 3.58-8 8-8z"
			/>
		</g>
	</g>
	<defs>
		<clipPath id="b">
			<rect width="16" height="16" />
		</clipPath>
	</defs>
</svg>
