<svg xmlns="http://www.w3.org/2000/svg" width="16" height="16" viewBox="0 0 16 16" fill="#ffffff">
	<path
		d="m3 2.75c-0.68739 0-1.25 0.56261-1.25 1.25s0.56261 1.25 1.25 1.25 1.25-0.56261 1.25-1.25-0.56261-1.25-1.25-1.25zm4 0.25c-0.554 0-1 0.446-1 1s0.446 1 1 1h6c0.554 0 1-0.446 1-1s-0.446-1-1-1zm-4 3.75c-0.68739 0-1.25 0.56261-1.25 1.25s0.56261 1.25 1.25 1.25 1.25-0.56261 1.25-1.25-0.56261-1.25-1.25-1.25zm4 0.25c-0.554 0-1 0.446-1 1s0.446 1 1 1h6c0.554 0 1-0.446 1-1s-0.446-1-1-1zm-4 3.75c-0.68739 0-1.25 0.5626-1.25 1.25s0.56261 1.25 1.25 1.25 1.25-0.5626 1.25-1.25-0.56261-1.25-1.25-1.25zm4 0.25c-0.554 0-1 0.446-1 1s0.446 1 1 1h6c0.554 0 1-0.446 1-1s-0.446-1-1-1z"
	/>
</svg>
