<svg xmlns="http://www.w3.org/2000/svg" width="16" height="16" viewBox="0 0 16 16" fill="#ffffff">
	<g clip-path="url(#a)">
		<path
			d="m15.724 10.041c0.3559-1.3102 0.38-2.7284 0.0012-4.1339-1.1446-4.25-5.5362-6.7723-9.8084-5.6336-3.2975 0.87907-5.5606 3.6822-5.895 6.8697h1.3531c0.32188-2.588 2.1797-4.8479 4.8675-5.5645 3.3219-0.8856 6.7307 0.90148 7.9194 4.0364l-1.3169 0.35081c-0.6059-1.4584-1.8268-2.5276-3.2728-2.983l-0.24188 1.3647c1.1416 0.4193 2.0675 1.3647 2.4063 2.6226 0.4937 1.8332-0.4256 3.7115-2.0938 4.4906l0.36036 1.3382c2.1925-0.9011 3.5096-3.1707 3.1981-5.5103l1.3119-0.34957c0.1376 0.87241 0.0966 1.7636-0.1207 2.6198l1.3316 0.48223z"
			clip-rule="evenodd"
			fill-rule="evenodd"
		/>
		<path
			d="m10.062 15.664c-4.2725 1.1387-8.6638-1.3837-9.8088-5.6336-0.13121-0.48675-0.21607-0.98473-0.25344-1.4873h1.3522c0.03406 0.37074 0.1 0.74366 0.20031 1.1153 0.105 0.3894 0.24281 0.7614 0.40969 1.1138l1.2059-0.7206c-0.10156-0.23351-0.18718-0.47693-0.25531-0.73001-0.75125-2.7891 0.9125-5.656 3.7162-6.4034 0.53125-0.14164 1.0656-0.19673 1.5875-0.17463l-0.24187 1.365c-0.32688 0.00155-0.65875 0.0442-0.98938 0.13229-2.0694 0.55191-3.2975 2.6677-2.7431 4.7265 0.03437 0.12669 0.07437 0.25027 0.12 0.37043l1.5422-0.92171-0.46469-1.2274 1.4562-1.4901 1.8406-0.39502 0.53281 0.65338-0.84843 0.85603-0.74 0.23191-0.52875 0.54132 0.25906 0.71814s0.52469 0.55533 0.52562 0.55564l0.74126-0.19642 0.52749-0.57712 1.1519-0.36327 0.3431 0.76887-1.1884 1.4515-1.9916 0.62816-0.89313-0.9905-1.5569 0.9304c0.79813 0.9052 1.9981 1.408 3.2422 1.3031l0.36032 1.3382c-1.8566 0.2446-3.67-0.5208-4.7966-1.9272l-1.2003 0.7172c1.5816 2.0697 4.3188 3.0951 6.9991 2.3807 1.9294-0.5142 3.431-1.8241 4.2441-3.4795l1.3325 0.4825c-0.9653 2.0632-2.8075 3.7024-5.1897 4.3374z"
		/>
	</g>
	<defs>
		<clipPath id="a">
			<rect width="16" height="16" />
		</clipPath>
	</defs>
</svg>
