<svg xmlns="http://www.w3.org/2000/svg" width="16" height="16" viewBox="0 0 16 16" fill="#ffffff">
	<path
		d="m5.5176 2.7227c-1.3123 0.085634-2.5173 1.1475-2.5176 2.623v5.3105c1.364e-4 1.9227 2.1057 3.2187 3.8262 2.3613l5.8848-2.9355c0.82999-0.41428 1.2891-1.2621 1.2891-2.0801 0-0.81792-0.45905-1.6677-1.2891-2.082l-5.8848-2.9355h-0.00195c-0.42026-0.20926-0.8692-0.29026-1.3066-0.26172zm0.41602 2.0508 5.8848 2.9355c0.15027 0.075005 0.18164 0.16857 0.18164 0.29297 0 0.12441-0.031359 0.216-0.18164 0.29102l-5.8848 2.9355c-0.46678 0.23262-0.93356-0.05615-0.93359-0.57227v-5.3105c0.001488-0.55566 0.52593-0.77525 0.93359-0.57227z"
	/>
</svg>
