<svg xmlns="http://www.w3.org/2000/svg" width="16" height="16" viewBox="0 0 16 16" fill="#ffffff">
	<path
		d="m7.5 0v5.042c-1.4434 0.24398-2.5 1.4941-2.5 2.958 1.95e-5 1.4639 1.0566 2.714 2.5 2.958v5.042h1v-5.042c1.4434-0.24398 2.5-1.4941 2.5-2.958-1.9e-5 -1.4639-1.0566-2.714-2.5-2.958v-5.042zm0.5 6c1.1046 0 2 0.89543 2 2s-0.89543 2-2 2-2-0.89543-2-2 0.89543-2 2-2z"
	/>
	<path
		d="m7.5 0v5.043c-1.2758 0.21566-2.2501 1.2164-2.459 2.457h-5.041v1h5.041c0.20889 1.2406 1.1831 2.2414 2.459 2.457v5.043h1v-5.043c1.2758-0.21566 2.2501-1.2164 2.459-2.457h5.041v-1h-5.041c-0.20889-1.2406-1.1831-2.2414-2.459-2.457v-5.043h-1zm0.5 6c1.1046 0 2 0.89543 2 2s-0.89543 2-2 2-2-0.89543-2-2 0.89543-2 2-2z"
	/>
</svg>
