<svg xmlns="http://www.w3.org/2000/svg" width="16" height="16" viewBox="0 0 16 16" fill="#ffffff">
	<path
		transform="rotate(45)"
		d="m3.5355-2.1213a3 3 0 0 0 0 4.2426 3 3 0 0 0 4.2426 0 3 3 0 0 0 0-4.2426 3 3 0 0 0-4.2426 0zm7.0697-5.5864c-0.18075 0.18075-0.29141 0.43149-0.29141 0.70849v13.999c0 0.554 0.44589 0.99989 0.99989 0.99989s0.99989-0.44589 0.99989-0.99989v-13.999c0-0.554-0.44589-0.99989-0.99989-0.99989-0.277 0-0.52774 0.11066-0.70849 0.29141zm-5.6555 7.0006a1 1 0 0 1 1.4142 0 1 1 0 0 1 0 1.4142 1 1 0 0 1-1.4142 0 1 1 0 0 1 0-1.4142zm9.8995-1.4142a3 3 0 0 0 0 4.2426 3 3 0 0 0 4.2426 0 3 3 0 0 0 0-4.2426 3 3 0 0 0-4.2426 0zm1.4142 1.4142a1 1 0 0 1 1.4142 0 1 1 0 0 1 0 1.4142 1 1 0 0 1-1.4142 0 1 1 0 0 1 0-1.4142z"
		fill="#fff"
		stroke-linecap="round"
		stroke-linejoin="round"
		stroke-width="2"
		style="paint-order: stroke fill markers"
	/>
</svg>
