<svg xmlns="http://www.w3.org/2000/svg" width="16" height="16" viewBox="0 0 16 16" fill="#000000">
	<path
		d="m2.8887 1.0059c-0.54915 0.061299-0.9445 0.55636-0.88281 1.1055l1 9c0.056747 0.50615 0.48482 0.88881 0.99414 0.88867h2.3828l-1.9609 4h1.1152l1.959-4h2.2266l1.8184 4h1.0977l-1.8184-4h2.1797c0.55228 0 1-0.44772 1-1s-0.44772-1-1-1h-4.5234l0.97266-1.9863 0.00977-0.019531h2.541c0.27614 0 0.5-0.22386 0.5-0.5s-0.22386-0.5-0.5-0.5h-7.4395l-0.56641-5.1055c-0.069238-0.6191-0.63402-0.93502-1.1055-0.88281zm1.7832 6.9883h3.6738l-0.98438 2.0059h-2.4668z"
	/>
</svg>
