<svg xmlns="http://www.w3.org/2000/svg" width="16" height="16" viewBox="0 0 16 16" fill="#000000">
	<path
		d="m8 0a8 8 0 0 0-8 8 8 8 0 0 0 8 8 8 8 0 0 0 8-8 8 8 0 0 0-8-8zm0 2a6 6 0 0 1 6 6 6 6 0 0 1-6 6 6 6 0 0 1-6-6 6 6 0 0 1 6-6zm-0.36719 1c-0.081481 0-0.14932 0.026273-0.20117 0.078125-0.051852 0.051852-0.078125 0.11774-0.078125 0.19922v0.76758c-0.74074 0.096296-1.3219 0.34845-1.7441 0.75586-0.41481 0.40741-0.62109 0.9031-0.62109 1.4883 1e-7 0.44444 0.09647 0.81739 0.28906 1.1211 0.2 0.2963 0.49177 0.54178 0.87695 0.73438 0.38518 0.18518 0.8546 0.33656 1.4102 0.45508 0.46667 0.11111 0.83725 0.21425 1.1113 0.31055 0.28148 0.096296 0.4854 0.20375 0.61133 0.32227 0.13333 0.11852 0.20117 0.2742 0.20117 0.4668 0 0.26667-0.12274 0.47921-0.36719 0.63477-0.23704 0.15556-0.59664 0.23242-1.0781 0.23242-0.2963 0-0.54414-0.037254-0.74414-0.11133-0.2-0.081481-0.36-0.18031-0.47852-0.29883-0.11111-0.11852-0.19229-0.24126-0.24414-0.36719-0.044444-0.05926-0.092679-0.10749-0.14453-0.14453-0.051852-0.044445-0.12636-0.066406-0.22266-0.066406h-1.1875c-0.066666 0-0.12588 0.026273-0.17773 0.078125-0.044445 0.044444-0.066406 0.095038-0.066406 0.1543 0.014815 0.33333 0.11795 0.65333 0.31055 0.95703s0.47769 0.56253 0.85547 0.77734c0.37778 0.20741 0.84719 0.34349 1.4102 0.41016v0.76758c0 0.08148 0.026273 0.14737 0.078125 0.19922 0.051852 0.051853 0.11969 0.078125 0.20117 0.078125h0.78711c0.074074 0 0.1376-0.026272 0.18945-0.078125 0.051852-0.051852 0.078125-0.11774 0.078125-0.19922v-0.76758c0.52593-0.066667 0.982-0.20039 1.3672-0.40039 0.39259-0.2 0.69534-0.46118 0.91016-0.78711 0.21481-0.33333 0.32226-0.7149 0.32226-1.1445 0-0.44444-0.096469-0.81267-0.28906-1.1016-0.18518-0.2963-0.48126-0.53552-0.88867-0.7207s-0.93604-0.34518-1.5879-0.47852c-0.42963-0.11111-0.77159-0.21189-1.0234-0.30078-0.25185-0.096296-0.43186-0.20375-0.54297-0.32227-0.11111-0.12593-0.16797-0.2773-0.16797-0.45508 0-0.27407 0.10745-0.47799 0.32227-0.61133s0.50422-0.19922 0.86719-0.19922c0.34074-1e-7 0.62153 0.074508 0.84375 0.22266 0.22222 0.14074 0.35163 0.30741 0.38867 0.5 0.044444 0.074074 0.096991 0.12467 0.15625 0.1543 0.059259 0.029629 0.12279 0.044922 0.18945 0.044922h1.2559c0.066665-1e-7 0.12157-0.021962 0.16602-0.066406 0.044447-0.051852 0.066407-0.10676 0.066407-0.16602-0.007408-0.26667-0.10388-0.54078-0.28906-0.82227-0.17778-0.28889-0.44092-0.54536-0.78906-0.76758-0.34074-0.22963-0.76623-0.38532-1.2773-0.4668v-0.78906c0-0.081481-0.026273-0.14737-0.078125-0.19922-0.051852-0.051852-0.11538-0.078125-0.18945-0.078125h-0.78711z"
	/>
</svg>
