<svg xmlns="http://www.w3.org/2000/svg" width="16" height="16" viewBox="0 0 16 16" fill="#000000">
	<path
		d="m8 1c-1.4974 0-2.8534 0.22654-3.9082 0.63672-0.52738 0.20509-0.98185 0.44993-1.3613 0.79883-0.37947 0.3489-0.73047 0.88298-0.73047 1.5645v8c0 0.68147 0.35099 1.2156 0.73047 1.5645 0.37947 0.3489 0.83395 0.59374 1.3613 0.79883 1.0548 0.41018 2.4108 0.63672 3.9082 0.63672s2.8534-0.22654 3.9082-0.63672c0.52738-0.20509 0.98185-0.44992 1.3613-0.79883 0.37947-0.3489 0.73047-0.88298 0.73047-1.5645v-8c0-0.68147-0.351-1.2156-0.73047-1.5645-0.37948-0.3489-0.83395-0.59374-1.3613-0.79883-1.0548-0.41018-2.4108-0.63672-3.9082-0.63672zm0 2c1.343 0 2.5586 0.22148 3.3652 0.53516 0.39684 0.15433 0.68638 0.33552 0.83008 0.46484-0.14369 0.12933-0.43323 0.31052-0.83008 0.46484-0.80659 0.31367-2.0223 0.53516-3.3652 0.53516-1.343 0-2.5586-0.22148-3.3652-0.53516-0.39684-0.15433-0.68638-0.33552-0.83008-0.46484 0.1437-0.12933 0.43323-0.31052 0.83008-0.46484 0.80659-0.31367 2.0223-0.53516 3.3652-0.53516zm-4.1953 3.2441c0.093467 0.041491 0.18862 0.08084 0.28711 0.11914 1.0548 0.41018 2.4108 0.63672 3.9082 0.63672s2.8534-0.22654 3.9082-0.63672c0.098487-0.0383 0.19364-0.077649 0.28711-0.11914v1.7559c-0.14369 0.12933-0.43323 0.31052-0.83008 0.46484-0.80659 0.31367-2.0223 0.53516-3.3652 0.53516-1.343 0-2.5586-0.22148-3.3652-0.53516-0.39684-0.15433-0.68638-0.33552-0.83008-0.46484v-1.7559zm0 4c0.093467 0.041491 0.18862 0.08084 0.28711 0.11914 1.0548 0.41018 2.4108 0.63672 3.9082 0.63672s2.8534-0.22654 3.9082-0.63672c0.098487-0.0383 0.19364-0.077649 0.28711-0.11914v1.7559c-0.14369 0.12933-0.43323 0.31052-0.83008 0.46484-0.80659 0.31367-2.0223 0.53516-3.3652 0.53516-1.343 0-2.5586-0.22148-3.3652-0.53516-0.39684-0.15433-0.68638-0.33552-0.83008-0.46484v-1.7559z"
	/>
</svg>
