<svg xmlns="http://www.w3.org/2000/svg" width="16" height="16" viewBox="0 0 16 16" fill="#000000">
	<path
		d="m1.1712 14.829c1.5623 1.5616 4.0945 1.5616 5.6569 0l2.16-2.16c-0.8085 0.02412-1.6226-0.12615-2.3754-0.45299l-1.1988 1.1988c-0.78105 0.78105-2.0474 0.78105-2.8284 0-0.78105-0.78105-0.78105-2.0474 0-2.8284l3.182-3.182c0.78105-0.78105 2.0474-0.78105 2.8284-1e-7 0.089642 0.089642 0.16848 0.18354 0.23754 0.2845 0.12006-0.00379 0.23977-0.054708 0.33974-0.15468l1.1684-1.1684c-0.10151-0.13055-0.21153-0.25566-0.33146-0.37565-1.5623-1.5616-4.0945-1.5616-5.6569 2e-7l-3.182 3.182c-1.5616 1.5623-1.5616 4.0945-1e-7 5.6569z"
	/>
	<path
		d="m14.829 1.1714c-1.5623-1.5616-4.0945-1.5616-5.6569 0l-2.16 2.16c0.8085-0.02412 1.6226 0.12615 2.3754 0.45299l1.1988-1.1988c0.78105-0.78105 2.0474-0.78105 2.8284 0 0.78105 0.78105 0.78105 2.0474 0 2.8284l-3.182 3.182c-0.78105 0.78105-2.0474 0.78105-2.8284 0-0.089642-0.089642-0.16848-0.18354-0.23754-0.2845-0.12006 0.0037921-0.23977 0.054708-0.33974 0.15468l-1.1684 1.1684c0.10151 0.13055 0.21153 0.25566 0.33146 0.37565 1.5623 1.5616 4.0945 1.5616 5.6569 0l3.182-3.182c1.5616-1.5623 1.5616-4.0945 0-5.6569z"
	/>
</svg>
