<svg xmlns="http://www.w3.org/2000/svg" width="16" height="16" viewBox="0 0 16 16" fill="#000000">
	<path
		d="m12 0c-1.0236-1.4803e-16 -2.0469 0.39108-2.8281 1.1719l-1.8789 1.8789 0.29297 0.29297c0.61595 0.044792 1.2264 0.19202 1.8008 0.44141l1.1992-1.1992c0.78105-0.78105 2.0471-0.78105 2.8281 0 0.78105 0.78105 0.78105 2.0471 0 2.8281l-1.8789 1.8789 1.4141 1.4141 1.8789-1.8789c1.5616-1.5623 1.5616-4.0938 0-5.6562-0.78115-0.7808-1.8045-1.1719-2.8281-1.1719zm-8.9492 7.293-1.8789 1.8789c-1.5616 1.5623-1.5616 4.0938 0 5.6562 1.5623 1.5616 4.0938 1.5616 5.6562 0l1.8789-1.8789-0.29297-0.29297c-0.61595-0.044792-1.2264-0.19202-1.8008-0.44141l-1.1992 1.1992c-0.78105 0.78105-2.0471 0.78105-2.8281 0-0.78105-0.78105-0.78105-2.0471 0-2.8281l1.8789-1.8789-1.4141-1.4141z"
		opacity=".4"
		style="paint-order: stroke fill markers"
	/>
	<path
		d="m3.707 2.293-1.4141 1.4141 10 10 1.4141-1.4141z"
		stop-color="#000000"
		stroke-linejoin="round"
		style="paint-order: stroke fill markers"
	/>
</svg>
