<svg xmlns="http://www.w3.org/2000/svg" width="16" height="16" viewBox="0 0 16 16" fill="#000000">
	<g clip-path="url(#b)">
		<mask
			id="a"
			x="0"
			y="2"
			width="62"
			height="12"
			style="mask-type: luminance"
			maskUnits="userSpaceOnUse"
		>
			<path d="m62 2h-62v12h62v-12z" />
		</mask>
		<g mask="url(#a)">
			<path
				d="m13.121 3.005c-1.0027-0.46949-2.0748-0.81071-3.1956-1.005-0.1377 0.24907-0.2985 0.58406-0.40935 0.85056-1.1915-0.17933-2.372-0.17933-3.5416 0-0.11085-0.2665-0.27535-0.60149-0.4142-0.85056-1.1221 0.19427-2.1954 0.53674-3.198 1.0075-2.0224 3.0585-2.5706 6.0411-2.2965 8.9813 1.3413 1.0025 2.6413 1.6114 3.9193 2.0099 0.31554-0.4346 0.59697-0.8966 0.83941-1.3835-0.46173-0.1756-0.90397-0.3923-1.3218-0.6439 0.11086-0.0821 0.21929-0.1681 0.32407-0.2565 2.5487 1.193 5.3178 1.193 7.8361 0 0.1059 0.0884 0.2144 0.1744 0.324 0.2565-0.4191 0.2528-0.8625 0.4695-1.3243 0.6451 0.2425 0.4857 0.5227 0.949 0.8394 1.3836 1.2792-0.3985 2.5804-1.0075 3.9217-2.0112 0.3217-3.4084-0.5494-6.3636-2.3025-8.9838zm-7.9494 7.1756c-0.76508 0-1.3925-0.71485-1.3925-1.5853 0-0.8705 0.61402-1.5866 1.3925-1.5866 0.77851 0 1.4059 0.7148 1.3925 1.5866 0.00125 0.87046-0.614 1.5853-1.3925 1.5853zm5.1462 0c-0.76514 0-1.3926-0.71485-1.3926-1.5853 0-0.8705 0.61405-1.5866 1.3926-1.5866 0.7784 0 1.4059 0.7148 1.3925 1.5866 0 0.87046-0.6141 1.5853-1.3925 1.5853z"
			/>
		</g>
	</g>
	<defs>
		<clipPath id="b">
			<rect transform="translate(0 2)" width="15.49" height="12" />
		</clipPath>
	</defs>
</svg>
