<svg xmlns="http://www.w3.org/2000/svg" width="16" height="16" viewBox="0 0 16 16" fill="#000000">
	<path
		d="m5.5605 2c-1.1221 0.19427-2.1966 0.53705-3.1992 1.0078-2.0224 3.0585-2.569 6.0403-2.2949 8.9805 1.3413 1.0025 2.64 1.6113 3.918 2.0098 0.31554-0.4346 0.5974-0.89591 0.83984-1.3828-0.46173-0.1756-0.90444-0.39293-1.3223-0.64453 0.11086-0.0821 0.21944-0.16746 0.32422-0.25586 2.5487 1.193 5.3176 1.193 7.8359 0 0.1059 0.0884 0.21462 0.17376 0.32422 0.25586-0.4191 0.2528-0.86242 0.47088-1.3242 0.64648 0.2425 0.4857 0.52314 0.94821 0.83984 1.3828 1.2792-0.3985 2.5806-1.008 3.9219-2.0117 0.3217-3.4084-0.54963-6.3622-2.3027-8.9824-1.0027-0.46949-2.0745-0.81157-3.1953-1.0059-0.1377 0.24907-0.29931 0.58311-0.41016 0.84961-1.1915-0.17933-2.3714-0.17933-3.541 0-0.11085-0.2665-0.27521-0.60054-0.41406-0.84961zm-0.38867 5.0078c0.77851 0 1.406 0.71609 1.3926 1.5879 0.00125 0.87046-0.61408 1.584-1.3926 1.584-0.76508 0-1.3926-0.71353-1.3926-1.584 0-0.8705 0.6141-1.5879 1.3926-1.5879zm5.1465 0c0.7784 0 1.406 0.71609 1.3926 1.5879 0 0.87046-0.61418 1.584-1.3926 1.584-0.76514 0-1.3926-0.71353-1.3926-1.584 0-0.8705 0.61403-1.5879 1.3926-1.5879z"
	/>
</svg>
