<svg xmlns="http://www.w3.org/2000/svg" width="16" height="16" viewBox="0 0 16 16" fill="#000000">
	<path
		d="m8.9987 0c-0.82843 0-1.5 0.67157-1.5 1.5s0.67157 1.5 1.5 1.5 1.5-0.67157 1.5-1.5-0.67157-1.5-1.5-1.5zm-1.375 4.0723-3.4141 1.7246-1.1387 2.8301c-0.19288 0.47943 0.025933 1.0134 0.43523 1.2458 0.60571 0.34404 1.2794-0.063259 1.4261-0.51733l0.84766-2.1133 0.83008-0.42188-0.55273 2.8008-0.40625 0.67578 3.3477 2.2422v2.4609c0 0.55228 0.44772 1 1 1s1-0.44772 1-1v-3.5391l-2.8906-1.9199 0.87109-4.3438c0.089275-0.44506-0.129-0.80843-0.39695-1.0034-0.25306-0.18415-0.60688-0.26306-0.95852-0.12159zm3.1699 2.209-0.39258 2.0391 1.1504 0.57422c0.49068 0.2452 1.0614 0.033674 1.3106-0.38582 0.27636-0.4652 0.12798-1.1312-0.41606-1.4032zm-6.1699 5.7363-1.4824 2.4688c-0.29761 0.49587-0.09531 1.102 0.3333 1.3676 0.44325 0.27469 1.0824 0.15939 1.3815-0.3403l1.4336-2.3867z"
	/>
</svg>
