<svg xmlns="http://www.w3.org/2000/svg" width="16" height="16" viewBox="0 0 16 16" fill="#000000">
	<g transform="translate(-2.586,1e-4)" fill="#fff">
		<path
			d="m13.881 3.2929 3.7051 3.707-3.7051 3.707c-0.39175 0.39172-1.0243 0.39172-1.416 0-0.39175-0.39172-0.39175-1.0223 0-1.4141l1.293-1.293h-6.0859c-1.1164 0-2 0.88359-2 2 0 1.1164 0.88359 2 2 2 0.55228 0 1 0.44772 1 1s-0.44772 1-1 1c-2.1973 0-4-1.8027-4-4s1.8027-4 4-4h6.0859l-1.293-1.293c-0.39175-0.39172-0.39175-1.0223 0-1.4141 0.3939-0.39395 1.0294-0.38666 1.416 0z"
		/>
	</g>
</svg>
