<svg xmlns="http://www.w3.org/2000/svg" width="16" height="16" viewBox="0 0 16 16" fill="#000000">
	<path
		d="m6 0c-0.55228 0-1 0.44772-1 1s0.44772 1 1 1h5c0.55228 0 1 0.44772 1 1v10c0 0.55228-0.44772 1-1 1h-5c-0.55228 0-1 0.44772-1 1s0.44772 1 1 1h6c1.1046 0 2-0.89543 2-2v-12c0-1.1046-0.89543-2-2-2zm0 4c-0.25607 0-0.51118 0.097109-0.70703 0.29297-0.39175 0.39172-0.39175 1.0223 0 1.4141l1.293 1.293h-5.5859c-0.554 0-1 0.446-1 1s0.446 1 1 1h5.5859l-1.293 1.293c-0.39175 0.39172-0.39175 1.0223 0 1.4141s1.0243 0.39172 1.416 0l3.7051-3.707-3.7051-3.707c-0.19588-0.19586-0.45292-0.29297-0.70898-0.29297z"
	/>
</svg>
