<svg xmlns="http://www.w3.org/2000/svg" width="16" height="16" viewBox="0 0 16 16" fill="#000000">
	<path
		d="m7.5 0v4.0176c-0.0044069 0.92235-0.37283 1.8045-1.0254 2.457-0.6565 0.65652-1.5462 1.0254-2.4746 1.0254h-4v1h4c1.1932 0 2.3379-0.47458 3.1816-1.3184 0.1128-0.11281 0.21901-0.23057 0.31836-0.35352v9.1719h1v-9.1719c0.099354 0.12295 0.20556 0.24071 0.31836 0.35352 0.84378 0.84378 1.9884 1.3184 3.1816 1.3184h4v-1h-4c-0.92845 0-1.8181-0.36887-2.4746-1.0254-0.65651-0.65651-1.0254-1.5462-1.0254-2.4746v-4h-1z"
		style="paint-order: stroke fill markers"
	/>
</svg>
