<svg xmlns="http://www.w3.org/2000/svg" width="16" height="16" viewBox="0 0 16 16" fill="#000000">
	<path
		d="m13.586 2.4142-1.3436 1.3436c-1.1674-1.1674-2.7046-1.752-4.2422-1.752s-3.0748 0.58457-4.2422 1.752c-2.3348 2.3348-2.3348 6.1496 0 8.4844s6.1496 2.3348 8.4844 0c0.39042-0.39051 0.39042-1.0236 0-1.4141-0.39051-0.39042-1.0236-0.39042-1.4141 0-1.5705 1.5705-4.0858 1.5705-5.6562 0-1.5705-1.5705-1.5705-4.0858 0-5.6562s4.0858-1.5705 5.6562 0l-1.4139 1.4139a0.82843 0.82843 67.5 0 0 0.58579 1.4142h5v-5a0.82843 0.82843 22.5 0 0-1.4142-0.58579z"
	/>
</svg>
