<svg xmlns="http://www.w3.org/2000/svg" width="16" height="16" viewBox="0 0 16 16" fill="#000000">
	<path
		d="m8 1a7 7 0 0 0-2.3516 0.40625l1.6445 1.6445a5 5 0 0 1 0.70703-0.050781 5 5 0 0 1 5 5 5 5 0 0 1-0.050781 0.70703l1.6445 1.6445a7 7 0 0 0 0.40625-2.3516 7 7 0 0 0-7-7zm-6.5938 4.6484a7 7 0 0 0-0.40625 2.3516 7 7 0 0 0 7 7 7 7 0 0 0 2.3516-0.40625l-1.6445-1.6445a5 5 0 0 1-0.70703 0.050781 5 5 0 0 1-5-5 5 5 0 0 1 0.050781-0.70703l-1.6445-1.6445z"
		opacity=".4"
	/>
	<path d="m3.707 2.293-1.4141 1.4141 10 10 1.4141-1.4141z" />
</svg>
