<svg xmlns="http://www.w3.org/2000/svg" width="16" height="16" viewBox="0 0 16 16" fill="#000000">
	<path
		d="m12.5 0a3.5 3.5 0 0 0-3.5 3.5 3.5 3.5 0 0 0 0.019531 0.37109l-3.1348 1.5684a3.5 3.5 0 0 0-2.3848-0.93945 3.5 3.5 0 0 0-3.5 3.5 3.5 3.5 0 0 0 3.5 3.5 3.5 3.5 0 0 0 2.3848-0.93945l3.1348 1.5684a3.5 3.5 0 0 0-0.019531 0.37109 3.5 3.5 0 0 0 3.5 3.5 3.5 3.5 0 0 0 3.5-3.5 3.5 3.5 0 0 0-3.5-3.5 3.5 3.5 0 0 0-2.7051 1.2793l-2.8945-1.4473a3.5 3.5 0 0 0 0.099609-0.83203 3.5 3.5 0 0 0-0.099609-0.83203l2.8945-1.4473a3.5 3.5 0 0 0 2.7051 1.2793 3.5 3.5 0 0 0 3.5-3.5 3.5 3.5 0 0 0-3.5-3.5zm0 2a1.5 1.5 0 0 1 1.5 1.5 1.5 1.5 0 0 1-1.5 1.5 1.5 1.5 0 0 1-1.5-1.5 1.5 1.5 0 0 1 1.5-1.5zm-9 4.5a1.5 1.5 0 0 1 1.5 1.5 1.5 1.5 0 0 1-1.5 1.5 1.5 1.5 0 0 1-1.5-1.5 1.5 1.5 0 0 1 1.5-1.5zm9 4.5a1.5 1.5 0 0 1 1.5 1.5 1.5 1.5 0 0 1-1.5 1.5 1.5 1.5 0 0 1-1.5-1.5 1.5 1.5 0 0 1 1.5-1.5z"
	/>
</svg>
