<svg xmlns="http://www.w3.org/2000/svg" width="16" height="16" viewBox="0 0 16 16" fill="#000000">
	<path
		d="m4.4512 2a1 1 0 0 0-0.12891 0.017578 1 1 0 0 0-0.63672 0.42578c-2.248 3.3639-2.2455 7.7595 0.0058593 11.121a1 1 0 0 0 1.3867 0.27539 1 1 0 0 0 0.27539-1.3887c-1.804-2.6936-1.8071-6.2011-0.0058594-8.8965a1 1 0 0 0-0.27539-1.3867 1 1 0 0 0-0.62109-0.16797zm6.9668 0.0019531a1 1 0 0 0-0.49024 0.16602 1 1 0 0 0-0.27539 1.3867c1.8012 2.6954 1.7981 6.2029-0.00586 8.8965a1 1 0 0 0 0.27539 1.3887 1 1 0 0 0 1.3867-0.27539c2.2514-3.3616 2.2539-7.7572 0.005859-11.121a1 1 0 0 0-0.89648-0.44141z"
	/>
</svg>
