<svg xmlns="http://www.w3.org/2000/svg" width="16" height="16" viewBox="0 0 16 16" fill="currentColor">
    <path
        d="m15.121 5.1213c1.1716-1.1716 1.1716-3.0711 0-4.2426-1.1716-1.1716-3.0711-1.1716-4.2426 3e-7l-1.7927 1.7932-1.3789-1.3789c-.39052-.39052-1.0235-.39052-1.4141 0-.39052.39052-.39052 1.0235 0 1.4141l1.3789 1.3789-7.6719 7.6719v4.2422h4.2422l7.6719-7.6719 1.3789 1.3789c.39052.39052 1.0235.39052 1.4141-2e-7.39052-.39052.39052-1.0235 0-1.4141l-1.3789-1.3789zm-6.0354.37868 1.4141 1.4141-7.0859 7.0859-1.4141-1e-6 1e-7-1.4141z" />
</svg>
