<svg xmlns="http://www.w3.org/2000/svg" width="16" height="16" viewBox="0 0 16 16" fill="currentColor">
    <path
        d="m6 0c-3.3137 0-6 2.6863-6 6 0.0038 2.9248 2.1161 5.4207 5 5.9082v1.0918c0 1.662 1.338 3 3 3h5c1.662 0 3-1.338 3-3v-5c0-1.662-1.338-3-3-3h-1.0859c-0.48784-2.8861-2.987-4.999-5.9141-5zm0 2c1.8233 8.614e-4 3.4153 1.2346 3.8711 3h-3.8711c-0.55228 0-1 0.44772-1 1s0.44772 1 1 1h7c0.554 0 1 0.446 1 1v5c0 0.554-0.446 1-1 1h-5c-0.554 0-1-0.446-1-1v-1.0898c1.762-0.29696 3.3-1.3638 4.1953-2.9102h-2.5684c-0.72584 0.64015-1.6592 0.99544-2.627 1-2.2091 0-4-1.7909-4-4s1.7909-4 4-4z" />
</svg>
