<svg xmlns="http://www.w3.org/2000/svg" width="16" height="16" viewBox="0 0 16 16" fill="currentColor">
    <path d="m6.2422 1 2 2h2.3438l-1.1719 1.1719 1.4141 1.4141 2.8789-2.8789c0.286-0.286 0.37158-0.71625 0.2168-1.0898-0.15478-0.37367-0.51937-0.61719-0.92383-0.61719h-6.7578zm-4.2422 4.2422v8.7578c0 0.55228 0.44772 1 1 1s1-0.44772 1-1v-3h3.7578l-2-2h-1.7578v-1.7578l-2-2z" opacity="0.4" />
    <path d="m3 1c-0.25562 0-0.51116 0.0971-0.70703 0.29297-0.39174 0.39174-0.39174 1.0223 0 1.4141l10 10c0.39174 0.39174 1.0223 0.39174 1.4141 0 0.39174-0.39174 0.39174-1.0223 0-1.4141l-10-10c-0.19587-0.19587-0.45141-0.29297-0.70703-0.29297z" />
</svg>
