<svg xmlns="http://www.w3.org/2000/svg" width="16" height="16" viewBox="0 0 16 16" fill="currentColor">
    <path
        d="m4.3962 1.4492c-1.2748-2.912e-4 -2.4877 0.55487-3.3223 1.5176-0.69193 0.79889-1.0745 1.8206-1.0742 2.8789v0.00391c0.0039 1.1638 0.46962 2.28 1.2949 3.1016l0.75586 0.75586 1.4141-1.4141-0.75977-0.75977c-0.44957-0.44755-0.70246-1.0545-0.70508-1.6895 2.918e-4 -0.57562 0.20814-1.1322 0.58594-1.5684 0.4562-0.52621 1.1148-0.82633 1.8105-0.82617 0.63643-7.09e-5 1.2457 0.25169 1.6953 0.70117l0.75781 0.75781 3.1582-3.1582c-0.56188 0.21877-1.0791 0.55185-1.5137 0.98633l-0.49414 0.49414-0.49414-0.49414c-0.82468-0.82442-1.944-1.2872-3.1094-1.2871zm11.377 3.0195-1.8184 1.8184c-0.09007 0.46918-0.31688 0.90436-0.66016 1.2461l-2e-3 0.00195-4.8008 4.8105c-0.21067 0.20943-0.5029 0.26308-0.75391 0.1582l-1.4414 1.4414c1.0549 0.85591 2.6318 0.79405 3.6113-0.18555l4.7969-4.8086 2e-3 -0.00195c0.82412-0.82142 1.2891-1.9367 1.293-3.0996v-0.00391c1.32e-4 -0.47212-0.08082-0.93593-0.22656-1.377z"
        opacity=".5" />
    <path d="m13.656 0.92969 1.4141 1.4141-12.727 12.727-1.4141-1.4141z" />
</svg>
