<svg xmlns="http://www.w3.org/2000/svg" width="16" height="16" viewBox="0 0 16 16" fill="currentColor">
    <path
        d="m8 0c-1.662 0-3 1.338-3 3v4c0 1.662 1.338 3 3 3 0.065499 0 0.12893-0.00567 0.19336-0.00977 0.13779-0.40302 0.35218-0.78968 0.6582-1.0957 0.41398-0.41398 0.97301-0.66326 1.5234-0.77734 0.14571-0.0302 0.29006-0.050605 0.43164-0.0625 0.12276-0.32825 0.19336-0.68257 0.19336-1.0547v-4c0-1.662-1.338-3-3-3zm0 2c0.554 0 1 0.446 1 1v4c0 0.554-0.446 1-1 1s-1-0.446-1-1v-4c0-0.554 0.446-1 1-1zm-7 3v2a7 7 0 0 0 6 6.9219v2.0781h1.1836c-0.22345-0.6757-0.22896-1.3943-0.080078-1.8613 0.22552-0.7074 0.61079-1.0842 0.66016-1.1348-0.063281-0.064065-0.39613-0.3874-0.62305-1.0156a5 5 0 0 1-0.14062 0.011719 5 5 0 0 1-5-5v-2zm12 0v2a5 5 0 0 1-0.27148 1.5996c0.13304 0.10127 0.2141 0.18321 0.24023 0.20898 0.05192-0.050948 0.42835-0.43535 1.1367-0.66211 0.22341-0.071519 0.50495-0.10552 0.81055-0.099609a7 7 0 0 0 0.083984-1.0469v-2z"
        opacity="0.4" />
    <path
        d="m12.973 11.598-1.293-1.2895s-0.72369-0.69037-1.4141 0c-0.69037 0.69037 0 1.4103 0 1.4103l1.293 1.2895-1.293 1.2895s-0.68185 0.72846 0 1.4103c0.68186 0.68186 1.4141 0 1.4141 0l1.293-1.2895 1.293 1.2895s0.72953 0.68454 1.4141 0 0-1.4103 0-1.4103l-1.293-1.2895 1.293-1.2895s0.6858-0.72452 0-1.4103-1.4141 0-1.4141 0z" />
</svg>
