<svg xmlns="http://www.w3.org/2000/svg" width="16" height="16" viewBox="0 0 16 16" fill="currentColor">
    <path d="m7 0.0019531v2.0996c-2.2746 0.46688-4 2.4912-4 4.8984v1 1.5293l-0.93164 1.0039a0.87297 0.87297 0 0 0 0.64062 1.4668h10.705a0.82843 0.82843 0 0 0 0.58594-1.4141l-1-1v-1.5859-0.11914c-0.32021 0.08441-0.65574 0.12891-1 0.12891s-0.67979-0.044496-1-0.12891v0.11914 2h-6v-2-1c0-1.6687 1.3313-3 3-3 0.0024798-0.99489 0.38196-1.9115 1-2.6152v-1.3828h-2zm5 2.0078a2 2 0 0 0-2 2 2 2 0 0 0 2 2 2 2 0 0 0 2-2 2 2 0 0 0-2-2zm-6 11.99a2 2 0 0 0 1 1.7324 2 2 0 0 0 2 0 2 2 0 0 0 1-1.7324h-4z" />
</svg>
