<svg xmlns="http://www.w3.org/2000/svg" width="16" height="16" viewBox="0 0 16 16" fill="currentColor">
    <path d="m4 0v1h-1c-1.108 0-2 0.892-2 2v1h14v-1c0-1.108-0.892-2-2-2h-1v-1h-2v1h-4v-1h-2zm-3 6v7c0 1.108 0.892 2 2 2h10c1.108 0 2-0.892 2-2v-7h-14zm9.8926 1h1.0684v5.4453h1.2754v1.457h-4.1426v-1.457h1.2441v-3.5449l-1.0977 0.51953-0.2832-1.4766 1.9355-0.94336zm-7.6523 0.039062h4.1816l0.30078 0.60352-1.7402 1.8672c0.19655 0.024237 0.38553 0.070343 0.56445 0.14453 0.26574 0.11018 0.50158 0.26259 0.70898 0.45703s0.36966 0.42371 0.48633 0.68945c0.11667 0.25926 0.17578 0.53779 0.17578 0.83594-1e-7 0.4537-0.11823 0.86032-0.35156 1.2168-0.22685 0.35-0.53627 0.62853-0.93164 0.83594-0.38889 0.20741-0.82311 0.31055-1.3027 0.31055-0.55092 0-1.0344-0.11299-1.4492-0.33984-0.40833-0.23333-0.7821-0.63142-1.1191-1.1953l1.1875-0.76953c0.14259 0.22685 0.28843 0.40881 0.4375 0.54492 0.15556 0.13611 0.31453 0.23597 0.47656 0.30078 0.16852 0.058333 0.34196 0.08789 0.52344 0.08789 0.18148 0 0.34702-0.039409 0.49609-0.11719 0.15556-0.084259 0.2784-0.20054 0.36914-0.34961 0.097222-0.14907 0.14648-0.3179 0.14648-0.50586 0-0.20093-0.042694-0.3678-0.12695-0.50391-0.077778-0.14259-0.19405-0.25097-0.34961-0.32227-0.14907-0.071296-0.33103-0.10742-0.54492-0.10742-0.097222 0-0.20036 0.013136-0.31055 0.039063-0.11018 0.019446-0.22646 0.049004-0.34961 0.08789-0.12315 0.038887-0.24928 0.091434-0.37891 0.15625l-0.35938-0.96289 1.4414-1.5684-2.1816-0.044922v-1.3906z" />
</svg>
