<svg xmlns="http://www.w3.org/2000/svg" width="16" height="16" viewBox="0 0 16 16" fill="currentColor">
    <path d="m7 0a1 1 0 0 0-1 1v0.35938c0 0.55228-0.42839 1.1412-0.91211 1.4062-0.056909 0.031199-0.11405 0.062674-0.16992 0.095703-0.47486 0.28074-1.2013 0.35411-1.6797 0.078125l-0.30078-0.17188a1.0002 1.0002 0 0 0-1.3652 0.36523l-1 1.7344a1.0003 1.0003 0 0 0 0.36523 1.3652l0.30859 0.17773c0.47824 0.27623 0.76786 0.9407 0.75781 1.4922-0.0011797 0.064652-0.0011827 0.1306 0 0.19531 0.010065 0.55149-0.27957 1.216-0.75781 1.4922l-0.30859 0.17773a1.0003 1.0003 0 0 0-0.36523 1.3652l1 1.7344a1.0002 1.0002 0 0 0 1.3652 0.36523l0.30078-0.17188c0.47838-0.27599 1.2048-0.20262 1.6797 0.078125 0.055867 0.03303 0.11301 0.064503 0.16992 0.095703 0.48372 0.26519 0.91211 0.85402 0.91211 1.4062v0.35938a1 1 0 0 0 1 1h2a1 1 0 0 0 1-1v-0.35938c0-0.55228 0.42839-1.1412 0.91211-1.4062 0.05691-0.0312 0.11406-0.062673 0.16992-0.095703 0.25859-0.15288 0.59085-0.24109 0.91797-0.24805v-3.8906c0-1.108 0.892-2 2-2 0.074672 0 0.1482 0.0038229 0.2207 0.011719 0.13169-0.25386 0.31529-0.47598 0.54297-0.60742l0.29883-0.17188a1.0002 1.0002 0 0 0 0.36523-1.3652l-1-1.7344a1.0002 1.0002 0 0 0-1.3652-0.36523l-0.29883 0.17188c-0.47838 0.27599-1.2048 0.20001-1.6777-0.083984-0.057907-0.034773-0.11673-0.068768-0.17578-0.10156-0.48225-0.26786-0.91016-0.85783-0.91016-1.4102v-0.34375a1 1 0 0 0-1-1h-2zm1 5a3 3 0 0 1 3 3 3 3 0 0 1-3 3 3 3 0 0 1-3-3 3 3 0 0 1 3-3zm6 3c-0.554 0-1 0.446-1 1v2c0 0.554 0.446 1 1 1s1-0.446 1-1v-2c0-0.554-0.446-1-1-1zm0 5a1 1 0 0 0-1 1 1 1 0 0 0 1 1 1 1 0 0 0 1-1 1 1 0 0 0-1-1z"/>
</svg>
