<?xml version="1.0" encoding="UTF-8"?>
<svg width="16" height="16" fill="currentColor" version="1.1" viewBox="0 0 16 16" xmlns="http://www.w3.org/2000/svg">
 <path d="m4.3965 1.4492c-1.2748-2.912e-4 -2.4877 0.55487-3.3223 1.5176-0.69193 0.79889-1.0745 1.8206-1.0742 2.8789v0.0039063c0.0039 1.1638 0.46962 2.28 1.2949 3.1016l4.7969 4.8086c0.5228 0.5228 1.2155 0.78516 1.9082 0.78516v-1.9902c-0.17706 6.59e-4 -0.35342-0.068268-0.49414-0.20898l-4.7988-4.8105-0.0019531-0.0019531c-0.44957-0.44755-0.70246-1.0545-0.70508-1.6895 2.918e-4 -0.57562 0.20814-1.1322 0.58594-1.5684 0.4562-0.52621 1.1148-0.82633 1.8105-0.82617 0.63643-7.08e-5 1.2457 0.25169 1.6953 0.70117l1.9082 1.9082 1.9082-1.9082c0.44954-0.44944 1.0588-0.70124 1.6953-0.70117 0.6958-1.414e-4 1.3543 0.29994 1.8105 0.82617 0.37781 0.43622 0.58564 0.99272 0.58594 1.5684-0.0026 0.63489-0.25556 1.242-0.70508 1.6895l-0.001953 0.0019531-0.46484 0.46484h2.5996c0.36812-0.65072 0.56972-1.3902 0.57227-2.1504v-0.0039063c2.97e-4 -1.0583-0.38232-2.08-1.0742-2.8789-0.83461-0.96262-2.0475-1.5178-3.3223-1.5176-1.1654-1.246e-4 -2.2847 0.46266-3.1094 1.2871l-0.49414 0.49414-0.49414-0.49414c-0.82468-0.82442-1.944-1.2872-3.1094-1.2871z" style="-inkscape-stroke:none"/>
</svg>
