<svg xmlns="http://www.w3.org/2000/svg" width="16" height="16" viewBox="0 0 16 16" fill="currentColor">
    <path
        d="m4.3962 1.4492c-1.2748-2.912e-4 -2.4877 0.55485-3.3223 1.5176-0.69193 0.79889-1.0745 1.8206-1.0742 2.8789v0.00391c0.0039 1.1638 0.46964 2.28 1.2949 3.1016l0.75586 0.75586 1.4141-1.4141-0.75977-0.75977c-0.44957-0.44755-0.70246-1.0545-0.70508-1.6895 2.918e-4 -0.57562 0.20814-1.1322 0.58594-1.5684 0.4562-0.52621 1.1148-0.82633 1.8105-0.82617 0.63643-7.09e-5 1.2457 0.25169 1.6953 0.70117l0.75781 0.75781 3.1582-3.1582c-0.56188 0.21877-1.0791 0.55185-1.5137 0.98633l-0.49414 0.49414-0.49414-0.49414c-0.82468-0.82442-1.944-1.2872-3.1094-1.2871zm11.377 3.0195-1.8184 1.8184c-0.09007 0.46918-0.31688 0.90435-0.66016 1.2461l-2e-3 0.00195-0.46484 0.46484h2.5977c0.36859-0.65101 0.57167-1.3897 0.57422-2.1504v-0.00391c1.32e-4 -0.47212-0.08083-0.93588-0.22656-1.377zm-8.0352 8.0352-1.4414 1.4414c0.49211 0.39928 1.0975 0.59587 1.7031 0.5957v-1.9863c-0.088936 4.29e-4 -0.17743-0.01556-0.26172-0.05078z"
        opacity=".5" />
    <path d="m13.656 0.92969 1.4131 1.4151-12.726 12.726-1.4141-1.4141z" />
</svg>
