<svg xmlns="http://www.w3.org/2000/svg" width="16" height="16" viewBox="0 0 16 16">
<path d="m12 8a4 4 0 0 1-4 4 4 4 0 0 1-4-4 4 4 0 0 1 4-4 4 4 0 0 1 4 4zm-4-8c-0.554 0-1 0.446-1 1v1.0918a6 6 0 0 0-2.4668 1.0273l-0.77539-0.77539c-0.39174-0.39174-1.0223-0.39174-1.4141 0s-0.39174 1.0223 0 1.4141l0.77539 0.77539a6 6 0 0 0-1.0273 2.4668h-1.0918c-0.554 0-1 0.446-1 1s0.446 1 1 1h1.0918a6 6 0 0 0 1.0273 2.4668l-0.77539 0.77539c-0.39174 0.39174-0.39174 1.0223 0 1.4141s1.0223 0.39174 1.4141 0l0.77539-0.77539a6 6 0 0 0 2.4668 1.0273v1.0918c0 0.554 0.446 1 1 1s1-0.446 1-1v-1.0918a6 6 0 0 0 2.4668-1.0273l0.77539 0.77539c0.39174 0.39174 1.0223 0.39174 1.4141 0s0.39174-1.0223 0-1.4141l-0.77539-0.77539a6 6 0 0 0 1.0273-2.4668h1.0918c0.554 0 1-0.446 1-1s-0.446-1-1-1h-1.0859a6 6 0 0 0-1.0254-2.4746l0.76758-0.76758c0.39174-0.39174 0.39174-1.0223 0-1.4141s-1.0223-0.39174-1.4141 0l-0.76758 0.76758a6 6 0 0 0-2.4746-1.0254v-1.0859c0-0.554-0.446-1-1-1z" fill="#000" />
</svg>