<svg xmlns="http://www.w3.org/2000/svg" width="16" height="16" viewBox="0 0 16 16" fill="#ffffff">
	<path
		d="m2.7934 2c-0.25607 0-0.51118 0.099052-0.70703 0.29492-0.39174 0.39173-0.39174 1.0243 0 1.416l4.293 4.291-4.293 4.291c-0.39174 0.39173-0.39174 1.0224 0 1.4141 0.39174 0.39174 1.0224 0.39174 1.4141 0l5.707-5.7051-5.707-5.707c-0.19587-0.19587-0.45096-0.29492-0.70703-0.29492zm5.7925-0.00192c-0.25607 0-0.51118 0.099052-0.70703 0.29492-0.39174 0.39173-0.39174 1.0243 0 1.416l4.293 4.291-4.293 4.291c-0.39174 0.39173-0.39174 1.0224 0 1.4141 0.39174 0.39174 1.0224 0.39174 1.4141 0l5.707-5.7051-5.707-5.707c-0.19587-0.19587-0.45096-0.29492-0.70703-0.29492z"
	/>
</svg>
